#!OML:ASF X:\für Bonn\!DataBase\2005_08_10_Bjorn_Final\c3d\bjorn.ASF
:FULLY-SPECIFIED
:DEGREES
155
root 1.7965 19.3129 3.6739 -186.148 -0.0750943 -192.052
lowerback 28.6895 -2.31641 9.86369
upperback 17.9463 5.87285 -2.0379
thorax 5.33682 6.5749 -8.43212
lowerneck -6.05586 11.5675 3.50215
upperneck 5.66297 16.7352 -20.2898
head 4.80067 7.32768 -5.61763
rclavicle 1.33583e-013 -2.38542e-014
rhumerus -10.4344 -10.6875 -74.6128
rradius 45.6892
rwrist -3.59771
rhand -11.0355 7.34712
rfingers 7.12502
rthumb 14.9863 -22.0906
lclavicle 1.33583e-013 -2.38542e-014
lhumerus -29.2587 -8.58759 81.1436
lradius 64.3251
lwrist -18.5891
lhand -44.8767 -17.9103
lfingers 7.12502
lthumb -17.665 11.3073
rfemur -10.9686 3.80712 6.17954
rtibia 31.0358
rfoot -9.80694 16.2135
rtoes -11.2212
lfemur -68.4711 0.148322 -20.3758
ltibia 123.815
lfoot -18.9493 -14.5705
ltoes -20.2969
156
root 1.79125 19.325 3.69174 -186.636 0.489172 -192.881
lowerback 29.9202 -2.25857 8.99382
upperback 18.1882 6.13644 -2.36349
thorax 5.11218 6.7597 -8.42728
lowerneck -6.40672 11.6085 3.57265
upperneck 5.14078 16.742 -20.6579
head 4.74798 7.32555 -5.72613
rclavicle -1.11319e-014 3.02153e-014
rhumerus -9.98628 -10.6267 -74.3031
rradius 46.3684
rwrist -3.45166
rhand -11.2605 7.35001
rfingers 7.12502
rthumb 14.7695 -22.1038
lclavicle -1.11319e-014 3.02153e-014
lhumerus -29.3125 -8.35654 80.5394
lradius 65.6661
lwrist -18.1512
lhand -45.6101 -18.2127
lfingers 7.12502
lthumb -18.3706 10.9398
rfemur -10.5894 4.42509 5.39331
rtibia 30.8463
rfoot -9.77676 16.1283
rtoes -12.0625
lfemur -70.0996 1.36787 -19.0621
ltibia 125.834
lfoot -19.4834 -15.5915
ltoes -22.3175
157
root 1.78245 19.3334 3.70768 -187.144 0.969445 -193.774
lowerback 31.1198 -2.21991 8.04682
upperback 18.4124 6.33035 -2.7157
thorax 4.8788 6.90549 -8.40041
lowerneck -6.72153 11.6775 3.73412
upperneck 4.60446 16.7801 -21.1061
head 4.70529 7.33876 -5.87195
rclavicle -2.06736e-014 -6.04305e-014
rhumerus -9.66191 -10.5111 -74.0188
rradius 47.2163
rwrist -3.33155
rhand -11.4485 7.34454
rfingers 7.12502
rthumb 14.5884 -22.1224
lclavicle -2.06736e-014 -6.04305e-014
lhumerus -29.4571 -8.01908 79.9166
lradius 67.0912
lwrist -17.8066
lhand -46.3877 -18.5882
lfingers 7.12502
lthumb -19.1185 10.4921
rfemur -10.2079 4.88093 4.52907
rtibia 30.6887
rfoot -9.83001 16.0744
rtoes -13.4792
lfemur -71.611 2.83613 -17.6352
ltibia 127.845
lfoot -20.131 -16.6654
ltoes -24.4675
158
root 1.77703 19.3376 3.72105 -187.666 1.39943 -194.748
lowerback 32.2891 -2.14284 6.96029
upperback 18.6161 6.50731 -3.07073
thorax 4.63799 7.02993 -8.30267
lowerneck -6.94756 11.7598 3.91472
upperneck 4.0291 16.8212 -21.5521
head 4.63827 7.36242 -6.02536
rclavicle 5.24792e-014 -1.90833e-014
rhumerus -9.44977 -10.3742 -73.727
rradius 48.1682
rwrist -3.28759
rhand -11.6053 7.40358
rfingers 7.12502
rthumb 14.4373 -22.0742
lclavicle 5.24792e-014 -1.90833e-014
lhumerus -29.667 -7.68252 79.285
lradius 68.6249
lwrist -17.4763
lhand -47.1363 -18.9089
lfingers 7.12502
lthumb -19.8383 10.0986
rfemur -9.84479 5.31876 3.58693
rtibia 30.5885
rfoot -9.93215 16.0175
rtoes -14.9164
lfemur -72.9994 4.76112 -16.0386
ltibia 129.797
lfoot -20.7637 -18.1186
ltoes -25.65
159
root 1.77156 19.341 3.73286 -188.183 1.77217 -195.734
lowerback 33.411 -2.0621 5.86735
upperback 18.7815 6.64517 -3.44818
thorax 4.38548 7.13167 -8.22059
lowerneck -7.08193 11.839 4.14294
upperneck 3.44463 16.8451 -21.9789
head 4.55352 7.38704 -6.18757
rclavicle 1.74931e-014 -3.65764e-014
rhumerus -9.36203 -10.2145 -73.4789
rradius 49.1626
rwrist -3.56438
rhand -11.8196 7.65366
rfingers 7.12502
rthumb 14.2308 -21.8388
lclavicle 1.74931e-014 -3.65764e-014
lhumerus -29.8837 -7.30562 78.605
lradius 70.0596
lwrist -17.2673
lhand -47.8929 -19.2061
lfingers 7.12502
lthumb -20.5655 9.72453
rfemur -9.64971 5.64088 2.62974
rtibia 30.8141
rfoot -10.2338 16.0033
rtoes -16.5459
lfemur -74.2409 7.15195 -14.2013
ltibia 131.655
lfoot -21.4885 -19.8732
ltoes -25.9984
160
root 1.76649 19.3444 3.7441 -188.663 2.05168 -196.718
lowerback 34.4831 -1.9874 4.81326
upperback 18.8949 6.73854 -3.84138
thorax 4.10822 7.20845 -8.17013
lowerneck -7.11523 11.9172 4.39844
upperneck 2.826 16.8516 -22.3695
head 4.43822 7.41566 -6.35116
rclavicle 1.59028e-014 5.40694e-014
rhumerus -9.42723 -10.0423 -73.2527
rradius 50.2346
rwrist -4.17949
rhand -11.9894 7.94685
rfingers 7.12502
rthumb 14.0672 -21.557
lclavicle 1.59028e-014 5.40694e-014
lhumerus -30.1254 -6.96013 77.879
lradius 71.4855
lwrist -17.125
lhand -48.6493 -19.36
lfingers 7.12502
lthumb -21.2922 9.49035
rfemur -9.49565 5.85359 1.66736
rtibia 31.075
rfoot -10.5633 15.9889
rtoes -18.1864
lfemur -75.4162 9.93256 -12.1369
ltibia 133.371
lfoot -22.126 -21.8528
ltoes -25.4152
161
root 1.75652 19.2926 3.74904 -189.099 2.2581 -197.66
lowerback 35.4363 -1.91776 3.8424
upperback 19.0073 6.82016 -4.22032
thorax 3.89114 7.28854 -8.13853
lowerneck -7.12887 11.9578 4.55484
upperneck 2.22256 16.8026 -22.6577
head 4.29793 7.42058 -6.47614
rclavicle -5.725e-014 1.74931e-014
rhumerus -9.56906 -9.93958 -73.0066
rradius 51.3774
rwrist -4.79839
rhand -12.1645 8.2172
rfingers 7.12502
rthumb 13.8985 -21.2983
lclavicle -5.725e-014 1.74931e-014
lhumerus -30.3165 -6.68192 77.1384
lradius 72.9676
lwrist -16.9498
lhand -49.309 -19.4325
lfingers 7.12502
lthumb -21.9257 9.34502
rfemur -9.47036 6.02241 0.716518
rtibia 31.4588
rfoot -10.8929 15.9345
rtoes -19.5923
lfemur -76.9383 13.6167 -9.65643
ltibia 135.282
lfoot -22.7001 -24.3947
ltoes -24.7207
162
root 1.75165 19.2968 3.75681 -189.484 2.41673 -198.611
lowerback 36.3018 -1.83647 2.91113
upperback 19.0958 6.8943 -4.6117
thorax 3.69437 7.36649 -8.13734
lowerneck -7.07005 11.9734 4.72174
upperneck 1.6078 16.7101 -22.9234
head 4.13474 7.41144 -6.60569
rclavicle -5.24792e-014 2.22639e-014
rhumerus -9.82923 -9.92984 -72.761
rradius 52.4509
rwrist -5.16574
rhand -12.4926 8.7622
rfingers 7.12502
rthumb 13.5823 -20.7748
lclavicle -5.24792e-014 2.22639e-014
lhumerus -30.4833 -6.47135 76.365
lradius 74.5288
lwrist -16.6419
lhand -49.8401 -19.5014
lfingers 7.12502
lthumb -22.4356 9.21554
rfemur -9.37413 6.14522 -0.223589
rtibia 31.7147
rfoot -11.1841 15.8188
rtoes -20.8249
lfemur -77.9987 17.3361 -7.07735
ltibia 136.704
lfoot -23.1209 -26.8728
ltoes -24.0301
163
root 1.74724 19.3028 3.762 -189.821 2.51957 -199.564
lowerback 37.0792 -1.75107 1.92955
upperback 19.1521 6.89887 -4.91486
thorax 3.48023 7.38255 -7.99564
lowerneck -6.89572 11.9957 4.57715
upperneck 0.960602 16.6239 -23.0828
head 3.90503 7.41391 -6.66251
rclavicle -3.49861e-014 1.74931e-014
rhumerus -10.1699 -9.72666 -72.333
rradius 53.3791
rwrist -5.26118
rhand -12.9519 9.66027
rfingers 7.12502
rthumb 13.1395 -19.9057
lclavicle -3.49861e-014 1.74931e-014
lhumerus -30.7418 -6.07663 75.734
lradius 76.1301
lwrist -16.3066
lhand -50.2852 -19.5553
lfingers 7.12502
lthumb -22.8628 9.10944
rfemur -9.2912 6.21882 -1.17876
rtibia 31.9401
rfoot -11.4157 15.6705
rtoes -21.7287
lfemur -79.0129 21.3918 -4.25029
ltibia 137.991
lfoot -23.3922 -29.5658
ltoes -23.2668
164
root 1.74408 19.3088 3.76467 -190.114 2.60098 -200.492
lowerback 37.7903 -1.64429 1.00414
upperback 19.1882 6.91485 -5.19106
thorax 3.2791 7.40171 -7.85626
lowerneck -6.72366 12.0142 4.44921
upperneck 0.380221 16.5415 -23.2137
head 3.69505 7.41595 -6.71208
rclavicle 9.22361e-014 -3.97569e-014
rhumerus -10.6046 -9.63397 -71.8555
rradius 54.228
rwrist -5.22524
rhand -13.3898 10.6561
rfingers 7.12502
rthumb 12.7174 -18.9367
lclavicle 9.22361e-014 -3.97569e-014
lhumerus -30.9502 -5.72103 75.1157
lradius 77.7323
lwrist -15.9277
lhand -50.6607 -19.723
lfingers 7.12502
lthumb -23.2231 8.89682
rfemur -9.09413 6.27101 -2.10658
rtibia 31.8816
rfoot -11.4547 15.4885
rtoes -22.2138
lfemur -79.9152 25.5698 -1.1842
ltibia 139.061
lfoot -23.5937 -32.154
ltoes -22.1265
165
root 1.742 19.316 3.76633 -190.358 2.63261 -201.389
lowerback 38.4348 -1.5532 0.14517
upperback 19.2094 6.90484 -5.45524
thorax 3.09092 7.4088 -7.72972
lowerneck -6.56018 12.0148 4.23442
upperneck -0.141776 16.4429 -23.2236
head 3.48176 7.41076 -6.71225
rclavicle 3.18055e-015 -3.65764e-014
rhumerus -11.0359 -9.64902 -71.4078
rradius 54.9258
rwrist -5.09052
rhand -13.6978 11.5906
rfingers 7.12502
rthumb 12.4205 -18.0204
lclavicle 3.18055e-015 -3.65764e-014
lhumerus -31.1031 -5.35909 74.5059
lradius 79.3363
lwrist -15.6202
lhand -50.9892 -19.7189
lfingers 7.12502
lthumb -23.5382 8.86077
rfemur -8.89956 6.3005 -3.00896
rtibia 31.7811
rfoot -11.3388 15.2667
rtoes -21.8635
lfemur -80.6215 29.3692 2.04148
ltibia 139.862
lfoot -23.9161 -34.2834
ltoes -21.0428
166
root 1.74048 19.3209 3.76538 -190.542 2.65994 -202.239
lowerback 38.9776 -1.46525 -0.656056
upperback 19.2252 6.88259 -5.70992
thorax 2.93661 7.40873 -7.61368
lowerneck -6.48425 12.0253 4.04273
upperneck -0.53568 16.3836 -23.2134
head 3.32704 7.41137 -6.69845
rclavicle 1.11319e-014 7.95139e-014
rhumerus -11.4341 -9.78477 -71.0267
rradius 55.4449
rwrist -4.82887
rhand -14.2263 12.3602
rfingers 7.12502
rthumb 11.9109 -17.2809
lclavicle 1.11319e-014 7.95139e-014
lhumerus -31.224 -5.03355 73.8301
lradius 80.9684
lwrist -15.2304
lhand -51.3139 -19.6658
lfingers 7.12502
lthumb -23.8497 8.87353
rfemur -8.74101 6.31816 -3.86569
rtibia 31.6491
rfoot -11.097 15.0129
rtoes -20.7718
lfemur -81.0787 32.8053 5.34724
ltibia 140.374
lfoot -24.6599 -35.7383
ltoes -21.4338
167
root 1.74028 19.327 3.76365 -190.698 2.65594 -203.023
lowerback 39.4882 -1.40225 -1.33819
upperback 19.2214 6.84686 -5.96175
thorax 2.77943 7.40784 -7.55416
lowerneck -6.38608 12.0108 3.91383
upperneck -0.882939 16.2951 -23.2157
head 3.18522 7.39659 -6.70184
rclavicle -3.18055e-014 4.29375e-014
rhumerus -11.9149 -9.98701 -70.6327
rradius 55.8659
rwrist -4.68444
rhand -14.8286 13.2107
rfingers 7.12502
rthumb 11.33 -16.4633
lclavicle -3.18055e-014 4.29375e-014
lhumerus -31.3261 -4.76701 73.1031
lradius 82.593
lwrist -14.8861
lhand -51.6801 -19.529
lfingers 7.12502
lthumb -24.2008 8.96404
rfemur -8.55985 6.34372 -4.65217
rtibia 31.4851
rfoot -10.7389 14.7077
rtoes -18.8583
lfemur -81.3633 35.6289 8.74423
ltibia 140.645
lfoot -25.3157 -36.8418
ltoes -21.7068
168
root 1.74306 19.3346 3.76053 -190.823 2.64636 -203.775
lowerback 39.8991 -1.33623 -2.02658
upperback 19.2563 6.81503 -6.16217
thorax 2.69671 7.40655 -7.42512
lowerneck -6.44969 12.0109 3.71244
upperneck -1.09914 16.2582 -23.2166
head 3.11053 7.38477 -6.6766
rclavicle 5.88403e-014 -1.11319e-014
rhumerus -12.3924 -10.2117 -70.1794
rradius 56.2393
rwrist -4.53098
rhand -15.7227 13.874
rfingers 7.12502
rthumb 10.4677 -15.8454
lclavicle 5.88403e-014 -1.11319e-014
lhumerus -31.3486 -4.47823 72.4052
lradius 84.188
lwrist -14.5233
lhand -52.1482 -19.182
lfingers 7.12502
lthumb -24.6496 9.2505
rfemur -8.39946 6.37966 -5.39226
rtibia 31.3278
rfoot -10.397 14.3556
rtoes -16.551
lfemur -81.5007 37.8106 12.1487
ltibia 140.726
lfoot -25.2664 -37.9157
ltoes -19.9276
169
root 1.7509 19.3425 3.75477 -190.9 2.59544 -204.54
lowerback 40.2282 -1.25937 -2.70641
upperback 19.2981 6.79455 -6.34732
thorax 2.65105 7.40925 -7.28066
lowerneck -6.61391 11.9888 3.5073
upperneck -1.20248 16.2141 -23.2054
head 3.0838 7.35453 -6.63988
rclavicle -2.38542e-014 -6.20208e-014
rhumerus -12.9234 -10.5401 -69.7147
rradius 56.5645
rwrist -4.46291
rhand -16.586 14.5566
rfingers 7.12502
rthumb 9.63479 -15.203
lclavicle -2.38542e-014 -6.20208e-014
lhumerus -31.2411 -4.19384 71.7033
lradius 85.655
lwrist -14.2443
lhand -52.6651 -18.7754
lfingers 7.12502
lthumb -25.1449 9.58861
rfemur -8.26967 6.38126 -6.14194
rtibia 31.1842
rfoot -10.0937 13.9558
rtoes -14.0685
lfemur -81.4928 39.1338 15.2637
ltibia 140.584
lfoot -24.9628 -38.4381
ltoes -17.4157
